/* XPM */
static char *gran[] = {
/* columns rows colors chars-per-pixel */
"32 32 171 2 ",
"   c #535353",
".  c #545454",
"X  c #555555",
"o  c #565656",
"O  c #575757",
"+  c #585858",
"@  c #595959",
"#  c #5A5A5A",
"$  c #5B5B5B",
"%  c #5C5C5C",
"&  c #5D5D5D",
"*  c #5E5E5E",
"=  c #5F5F5F",
"-  c #606060",
";  c #616161",
":  c #626262",
">  c #636363",
",  c #646464",
"<  c #656565",
"1  c #666666",
"2  c #676767",
"3  c #686868",
"4  c #696969",
"5  c #6A6A6A",
"6  c #6B6B6B",
"7  c #6C6C6C",
"8  c #6D6D6D",
"9  c #6E6E6E",
"0  c #6F6F6F",
"q  c #707070",
"w  c #717171",
"e  c #727272",
"r  c #737373",
"t  c #747474",
"y  c #757575",
"u  c #767676",
"i  c #777777",
"p  c #787878",
"a  c #797979",
"s  c #7A7A7A",
"d  c #7B7B7B",
"f  c #7C7C7C",
"g  c #7D7D7D",
"h  c #7E7E7E",
"j  c #7F7F7F",
"k  c #808080",
"l  c #818181",
"z  c #828282",
"x  c #838383",
"c  c #848484",
"v  c #858585",
"b  c #868686",
"n  c #878787",
"m  c #888888",
"M  c #898989",
"N  c #8A8A8A",
"B  c #8B8B8B",
"V  c #8C8C8C",
"C  c #8D8D8D",
"Z  c #8E8E8E",
"A  c #8F8F8F",
"S  c #909090",
"D  c #919191",
"F  c #929292",
"G  c #939393",
"H  c #949494",
"J  c #959595",
"K  c #969696",
"L  c #979797",
"P  c #989898",
"I  c #999999",
"U  c #9A9A9A",
"Y  c #9B9B9B",
"T  c #9C9C9C",
"R  c #9D9D9D",
"E  c #9E9E9E",
"W  c #9F9F9F",
"Q  c #A0A0A0",
"!  c #A1A1A1",
"~  c #A2A2A2",
"^  c #A3A3A3",
"/  c #A4A4A4",
"(  c #A5A5A5",
")  c #A6A6A6",
"_  c #A7A7A7",
"`  c #A8A8A8",
"'  c #A9A9A9",
"]  c #AAAAAA",
"[  c #ABABAB",
"{  c #ACACAC",
"}  c #ADADAD",
"|  c #AEAEAE",
" . c #AFAFAF",
".. c #B0B0B0",
"X. c #B1B1B1",
"o. c #B2B2B2",
"O. c #B3B3B3",
"+. c #B4B4B4",
"@. c #B5B5B5",
"#. c #B6B6B6",
"$. c #B7B7B7",
"%. c #B8B8B8",
"&. c #B9B9B9",
"*. c #BABABA",
"=. c #BBBBBB",
"-. c #BCBCBC",
";. c #BDBDBD",
":. c #BEBEBE",
">. c #BFBFBF",
",. c #C0C0C0",
"<. c #C1C1C1",
"1. c #C2C2C2",
"2. c #C3C3C3",
"3. c #C4C4C4",
"4. c #C5C5C5",
"5. c #C6C6C6",
"6. c #C7C7C7",
"7. c #C8C8C8",
"8. c #C9C9C9",
"9. c #CACACA",
"0. c #CBCBCB",
"q. c #CCCCCC",
"w. c #CDCDCD",
"e. c #CECECE",
"r. c #CFCFCF",
"t. c #D0D0D0",
"y. c #D1D1D1",
"u. c #D3D3D3",
"i. c #D4D4D4",
"p. c #D5D5D5",
"a. c #D6D6D6",
"s. c #D7D7D7",
"d. c #D8D8D8",
"f. c #D9D9D9",
"g. c #DADADA",
"h. c #DBDBDB",
"j. c #DDDDDD",
"k. c #DEDEDE",
"l. c #DFDFDF",
"z. c #E0E0E0",
"x. c #E1E1E1",
"c. c #E2E2E2",
"v. c #E3E3E3",
"b. c #E4E4E4",
"n. c #E5E5E5",
"m. c #E6E6E6",
"M. c #E7E7E7",
"N. c #E8E8E8",
"B. c #E9E9E9",
"V. c #EAEAEA",
"C. c #EBEBEB",
"Z. c #ECECEC",
"A. c #EDEDED",
"S. c #EEEEEE",
"D. c #EFEFEF",
"F. c #F0F0F0",
"G. c #F1F1F1",
"H. c #F2F2F2",
"J. c #F3F3F3",
"K. c #F4F4F4",
"L. c #F5F5F5",
"P. c #F6F6F6",
"I. c #F7F7F7",
"U. c #F8F8F8",
"Y. c #F9F9F9",
"T. c #FAFAFA",
"R. c #FBFBFB",
"E. c #FCFCFC",
"W. c #FDFDFD",
"Q. c #FEFEFE",
"!. c #FFFFFF",
/* pixels */
"!.!.!.!.!.!.!.!.!.!.!.Z.Z.Z.e.X.=. .P L N p p t 4 & : 4 t t t t ",
"!.!.!.!.!.!.!.!.!.!.!.I.!.c.2.2.=.P P L N p l l : & : 4 4 4 t t ",
"!.!.!.!.!.!.!.!.!.!.!.!.Z.e.=.X. .L P N l t t t : & : 4 : 4 t t ",
"!.!.!.!.!.!.!.!.!.!.!.c.a.a.a.2.P L P N p t 4 : & & : & 4 t t N ",
"!.!.!.!.!.!.!.!.!.Z.Z.c.c.Z.I.=.L N L l p t : & & & & 4 t t t L ",
"!.!.!.!.!.!.!.I.Z.I.Z.Z.!.!.c. .l l l l p 4 4 : O & : 4 t t l ) ",
"!.!.!.!.!.I.Z.c.I.I.I.!.!.!.c. .P N p t p p p & & & & : 4 4 N  .",
"!.!.!.!.!.I.k.a.Z.!.!.I.Z.k.a.=.X.L 4 t p N t : O & & & 4 t ) =.",
"!.!.!.!.I.Z.Z.2.k.I.I.I.k.k.=.X.P N : t p l t : & & & : p l X.=.",
"!.!.!.I.c.k.c.e.e.k.k.Z.a.a.=.e.L 4 4 t p l t 4 & & O p N P X. .",
"!.!.I.k.a.e.e.=.2.k.Z.k.a.e.k.=.4 & t 4 4 t : 4 & O t N l  .P P ",
"!.!.!.Z.2.=.X.X.2.k.I.k.Z.c.c.=.t & 4 & & : O & & O l p l P l L ",
"!.!.!.I.e. .) =.=.c.Z.c.k.k.c.P : & : & & & & & : t : : l l l l ",
"I.!.c.a.e.=.P X.X.2.e.k.2.k.=.: O p p O & & O O L N & & : 4 t p ",
"Z.k.a.2.=. .L P ) ) 2.a.=.a.l O 4 N 4 4 t & & P 2.N O & 4 4 t p ",
"I.e.=.X.X. .P N L ) X.=.) X.4 & N N & t 4 & P e.X.t & & & : 4 p ",
"c.2.X.)  . .P l L N  .X.P P & p P t : t : N e.=.N : & & & O & 4 ",
"k.e.2. .L ) N N t t L L L 4 O N N 4 4 4 p =.e.P t : : : & & : 4 ",
"2.=. .P N l p p 4 4 4 l L O : t t : t t ) a.2.N t p t t & & & 4 ",
"c.2.) L L L p t 4 : & p 4 & 4 4 : 4 t p =.k. .l N p 4 : & & : 4 ",
"k.=. .L N p p 4 : & & & & & 4 4 4 t t ) X.=.) L l p 4 : & & & & ",
"a.2.X.P N p t 4 : & & & & p l t 4 t p P P  . .P L l t : & & & & ",
"a.a.2.) L p t : & & & & t p N l t p l P X.X.) P L l 4 : O & & & ",
"c.=.) L N p 4 & & & O : 4 l P l l l L 2.=. .P L N p 4 & & & & & ",
"c.e.X.P N p 4 & & & O & t N L P N L X.e. .P N N l t 4 : & & & & ",
"e.2.P N ) N 4 & O & & & t p  .X.) X.=.P N N l p t 4 : & & & & & ",
"X. . . .X.l : & & & & : p N  .X.2.e. .N l p p t t : & & & & O & ",
"L )  .) P t O & O & & : p N N ) 2.e.) L N l p t 4 : : & O & O & ",
"l l p t : & & & & : : : N P  .2.e.2.X.P L l p p t 4 & : : : & & ",
"l t t : & & O & & : & 4 N L  .a.2.X.X.P L N l p 4 : & 4 : & 4 : ",
"l t : & O & & & & & : l N L  .2.=.X. .P L N l p : : 4 4 4 : 4 t ",
"t 4 & & & & O & & & : 4 p P X.X.=.=.2.2. .L l t 4 t p t p p p p "
};
